<?xml version="1.0" encoding="utf-8"?>
<!-- Generator: Adobe Illustrator 19.2.1, SVG Export Plug-In . SVG Version: 6.00 Build 0)  -->
<svg version="1.1" id="Layer_1" xmlns="http://www.w3.org/2000/svg" xmlns:xlink="http://www.w3.org/1999/xlink" x="0px" y="0px"
	 viewBox="0 0 426 198.7" style="enable-background:new 0 0 426 198.7;" xml:space="preserve">
<style type="text/css">
	.st0{fill:black;}
	.st1{fill:#44B6E5;}
	.st2{fill-rule:evenodd;clip-rule:evenodd;fill:black;}
</style>
<g>
	<path class="st0" d="M5.7,47.6h49.5c16.7,0,29.9,4.6,38.2,13c6.7,6.7,10,14.8,10,24.9v0.4c0,16.5-8.8,25.7-19.2,31.6
		c16.9,6.5,27.4,17.3,27.4,36.9v0.4c0,26.8-21.7,40.1-54.8,40.1H5.7V47.6 M47.6,105.7c15.2,0,24.9-4.9,24.9-16.6v-0.5
		c0-10.3-8.1-16.1-22.6-16.1H34.3v33.2H47.6z M56.8,169.9c15.2,0,24.4-5.4,24.4-17v-0.4c0-10.5-7.8-17-25.6-17H34.3v34.5H56.8z"/>
	<path class="st0" d="M243.9,79.1c-13.4-19.2-36.5-31.5-65.2-31.5h-57.1v146.3h57.1c42.4,0,72.6-27.2,77.1-63.7
		c-7.8-12.6-12.3-27.5-12.3-43.4C243.6,84.2,243.7,81.6,243.9,79.1z M226,121.2c0,27.8-19.1,46.9-47.3,46.9H152V73.4h26.7
		c28.2,0,47.3,19.5,47.3,47.3V121.2z"/>
	<path class="st1" d="M326.4,4c-43.1,0-78.6,33-82.4,75.1c-0.2,2.5-0.4,5.1-0.4,7.7c0,15.9,4.5,30.8,12.3,43.4
		c14.6,23.6,40.7,39.4,70.5,39.4c45.7,0,82.8-37.1,82.8-82.8C409.2,41,372.1,4,326.4,4z M375.3,135.7
		c-12.5,12.5-29.8,20.3-48.9,20.3c-19.1,0-36.4-7.7-48.9-20.3c-12.5-12.6-20.3-29.8-20.3-48.9c0-19.1,7.7-36.4,20.3-48.9
		c12.5-12.5,29.8-20.3,48.9-20.3c19.1,0,36.4,7.7,48.9,20.3c12.5,12.5,20.3,29.8,20.3,48.9C395.6,105.9,387.9,123.2,375.3,135.7z"/>
	<path class="st2" d="M341.3,110.5h-29.8l-4.3,14h-26.8l32-85h28.8l31.9,85h-27.5L341.3,110.5 M335.7,92.1l-9.3-30.6l-9.3,30.6
		H335.7z"/>
	<g>
		<path class="st0" d="M407.6,17.3v2.3h-3.1v11.4h-2.6V19.6h-3.1v-2.3H407.6z"/>
		<path class="st0" d="M409.8,31.1V17.3h3.7l2.4,9h0l2.4-9h3.7v13.8h-2.2V20.2h0l-2.8,10.8h-2l-2.8-10.8h0v10.8H409.8z"/>
	</g>
</g>
</svg>
